<?xml version="1.0" encoding="utf-8"?>
<!-- Generator: Adobe Illustrator 17.1.0, SVG Export Plug-In . SVG Version: 6.00 Build 0)  -->
<!DOCTYPE svg PUBLIC "-//W3C//DTD SVG 1.1//EN" "http://www.w3.org/Graphics/SVG/1.1/DTD/svg11.dtd">
<svg version="1.1" id="Layer_1" xmlns="http://www.w3.org/2000/svg" xmlns:xlink="http://www.w3.org/1999/xlink" x="0px" y="0px"
	 viewBox="0 0 1024 1024" enable-background="new 0 0 1024 1024" xml:space="preserve">
<path fill="#010101" fill-opacity="0.5" d="M420.5,921.6c0,56.6-47.1,102.4-105.1,102.4c-58.1,0-105.1-45.8-105.1-102.4
	c0-56.6,47.1-102.4,105.1-102.4C373.4,819.2,420.5,865,420.5,921.6z M841,819.2c-58.1,0-105.1,45.8-105.1,102.4
	c0,56.6,47.1,102.4,105.1,102.4c58.1,0,105.1-45.8,105.1-102.4C946.1,865,899,819.2,841,819.2z M367.9,563.2h473L1024,236
	l-86.5-133.6h-701L165.4,0H0v102.4h105.1l194.4,378.8c-29.4,39.2-89.3,126.4-89.3,184.4c0,76.8,52.6,102.4,52.6,102.4h683.3V665.6
	H315.4C315.4,614.4,367.9,563.2,367.9,563.2z"/>
</svg>
