<?xml version="1.0" encoding="utf-8"?>
<!-- Generator: Adobe Illustrator 18.1.1, SVG Export Plug-In . SVG Version: 6.00 Build 0)  -->
<!DOCTYPE svg PUBLIC "-//W3C//DTD SVG 1.1//EN" "http://www.w3.org/Graphics/SVG/1.1/DTD/svg11.dtd">
<svg version="1.1" id="Layer_1" xmlns="http://www.w3.org/2000/svg" xmlns:xlink="http://www.w3.org/1999/xlink" x="0px" y="0px"
	 viewBox="0 0 1024 1024" enable-background="new 0 0 1024 1024" xml:space="preserve">
<path fill="#231F20" d="M512,0C229.2,0,0,229.2,0,512s229.2,512,512,512s512-229.2,512-512S794.8,0,512,0z M828.4,646.8
	c-0.8,23.1-6.1,45.5-16.4,66.4c-17.8,36.2-47.2,56.6-86.6,62.7c-11.9,1.8-24.1,1.7-36.1,2c-13.7,0.4-27.5,0.3-41.2,0.3
	c-61.6,0-123.2,0-184.8,0c-59.2,0.1-118.5,0-177.7,0.4c-27.8,0.2-50-11.1-68.1-31.2c-16-17.9-23.6-39.2-23.4-63.2
	c0.6-50.2,1.3-100.4,2.2-150.7c0.1-7.5,1.5-15,2.3-22.5c0.7-0.1,1.4-0.1,2-0.2c1.3,2.7,2.6,5.4,3.8,8.1c12.3,27,26,53.2,43.4,77.3
	c45.1,62.4,106.4,99.6,181.6,113.1c62.8,11.3,123.4,2,179.6-28.6c53-28.8,92-70.7,110.7-128.9c21.9-68.3,10.9-131.4-35-186.8
	c-32.4-39.1-74.8-61-125.7-65.8c-29.6-2.8-58.2,1.1-85.4,13.3c-31.9,14.3-57.2,36.3-72.2,68.4c-13.6,29.1-15.6,59.1-2.1,88.7
	c14.5,31.9,39.5,51.7,74.5,55.4c24.3,2.6,46.1-4.5,59.7-27.4c3.4-5.7,5.3-11.7,4.7-18.3c-1.2-14-11.8-24.2-26.7-21.8
	c-9.7,1.6-17.8-2.6-20.2-10.5c-1.5-5.1-2.1-10.8-1.5-16c1.1-9.4,6.3-16.7,14.3-21.9c20.3-13.2,41.8-14.1,63.8-5.2
	c33.9,13.7,56.5,51.1,53.5,87.5c-0.9,11.4-2.5,22.5-6.7,33.3c-6.8,17.6-17.3,32.5-31,45.3c-22.7,21.2-49.8,33.4-80.3,37.9
	c-39.8,5.8-77.2-2.5-112.6-20.8c-15.1-7.8-27.4-19.3-39.3-31.3c-29.3-29.5-46.6-65.1-51-106.2c-4.1-37.9,1.6-74.5,19.3-109
	c23.8-46.4,59.4-80.3,106.1-103c44.6-21.7,91.8-29.1,140.9-25.9c33,2.2,64,12.3,94,25.8c66.9,30,113.7,79,140.2,147.3
	c14.7,37.8,23.1,77,26.2,117.4C831.1,550.7,830.1,598.7,828.4,646.8z"/>
</svg>
