<?xml version="1.0" encoding="utf-8"?>
<!-- Generator: Adobe Illustrator 18.1.1, SVG Export Plug-In . SVG Version: 6.00 Build 0)  -->
<!DOCTYPE svg PUBLIC "-//W3C//DTD SVG 1.1//EN" "http://www.w3.org/Graphics/SVG/1.1/DTD/svg11.dtd">
<svg version="1.1" id="Layer_1" xmlns="http://www.w3.org/2000/svg" xmlns:xlink="http://www.w3.org/1999/xlink" x="0px" y="0px"
	 viewBox="0 0 1024 1024" enable-background="new 0 0 1024 1024" xml:space="preserve">
<path fill="#231F20" d="M512,0C229.2,0,0,229.3,0,512c0,282.8,229.2,512,512,512s512-229.2,512-512C1024,229.3,794.8,0,512,0z
	 M647.5,509.8h-88.6c0,141.7,0,316.2,0,316.2H427.5c0,0,0-172.7,0-316.2H365V398.2h62.5v-72.3c0-51.8,24.6-132.6,132.6-132.6
	l97.3,0.4v108.4c0,0-59.2,0-70.7,0c-11.5,0-27.8,5.8-27.8,30.4v65.7H659L647.5,509.8z"/>
</svg>
