<?xml version="1.0" encoding="utf-8"?>
<!-- Generator: Adobe Illustrator 18.1.1, SVG Export Plug-In . SVG Version: 6.00 Build 0)  -->
<!DOCTYPE svg PUBLIC "-//W3C//DTD SVG 1.1//EN" "http://www.w3.org/Graphics/SVG/1.1/DTD/svg11.dtd">
<svg version="1.1" id="Layer_1" xmlns="http://www.w3.org/2000/svg" xmlns:xlink="http://www.w3.org/1999/xlink" x="0px" y="0px"
	 viewBox="0 0 1024 1024" enable-background="new 0 0 1024 1024" xml:space="preserve">
<g>
	<path fill="#231F20" d="M512,0C229.3,0,0,229.2,0,512C0,721.6,126.1,901.8,306.5,981c-1.4-35.8-0.3-78.7,8.9-117.6
		c9.8-41.6,65.9-279,65.9-279s-16.4-32.7-16.4-81c0-75.9,44-132.5,98.7-132.5c46.6,0,69.1,35,69.1,76.9
		c0,46.8-29.9,116.8-45.2,181.7c-12.8,54.3,27.2,98.6,80.8,98.6c97,0,162.3-124.6,162.3-272.2c0-112.2-75.6-196.2-213-196.2
		c-155.3,0-252.1,115.8-252.1,245.2c0,44.6,13.2,76.1,33.8,100.4c9.5,11.2,10.8,15.7,7.4,28.5c-2.4,9.4-8.1,32.1-10.4,41.1
		c-3.4,13-13.9,17.6-25.6,12.8c-71.5-29.2-104.9-107.6-104.9-195.6c0-145.4,122.7-319.9,365.9-319.9
		c195.5,0,324.1,141.5,324.1,293.3c0,200.8-111.7,350.9-276.3,350.9c-55.3,0-107.3-29.9-125.1-63.8c0,0-29.7,118-36,140.7
		c-10.9,39.5-32.1,78.9-51.5,109.7c46.1,13.6,94.7,21,145.1,21c282.7,0,512-229.2,512-512C1024,229.2,794.7,0,512,0z"/>
</g>
</svg>
