<?xml version="1.0" encoding="utf-8"?>
<!-- Generator: Adobe Illustrator 18.1.1, SVG Export Plug-In . SVG Version: 6.00 Build 0)  -->
<!DOCTYPE svg PUBLIC "-//W3C//DTD SVG 1.1//EN" "http://www.w3.org/Graphics/SVG/1.1/DTD/svg11.dtd">
<svg version="1.1" id="Layer_1" xmlns="http://www.w3.org/2000/svg" xmlns:xlink="http://www.w3.org/1999/xlink" x="0px" y="0px"
	 viewBox="0 0 1024 1024" enable-background="new 0 0 1024 1024" xml:space="preserve">
<g>
	<polygon fill="#231F20" points="293.4,555.1 330.5,555.1 330.5,739.2 366.3,739.2 366.3,555.1 403.3,555.1 403.3,523.7 
		293.4,523.7 	"/>
	<path fill="#231F20" d="M513.4,402.1c4.9,0,8.7-1.3,11.6-3.9c2.9-2.7,4.3-6.4,4.3-11.1v-95.4c0-3.8-1.5-6.9-4.4-9.3
		c-2.9-2.4-6.7-3.6-11.5-3.6c-4.4,0-7.9,1.2-10.7,3.6c-2.7,2.3-4.1,5.4-4.1,9.3V387c0,4.8,1.3,8.5,3.8,11.1
		C505,400.8,508.7,402.1,513.4,402.1z"/>
	<path fill="#231F20" d="M592.4,578.3c-5,0-9.8,1.3-14.7,3.8c-4.8,2.5-9.3,6.3-13.6,11.1v-69.4H532v215.5h32.1v-12.2
		c4.1,4.9,8.7,8.5,13.6,10.8c4.8,2.3,10.4,3.5,16.6,3.5c9.4,0,16.7-3,21.6-9c5-6.1,7.5-14.7,7.5-25.9v-88.2c0-13-2.6-22.9-8-29.7
		C610.1,581.7,602.4,578.3,592.4,578.3z M590.6,702.1c0,5.1-0.9,8.7-2.7,11c-1.8,2.3-4.7,3.4-8.6,3.4c-2.7,0-5.2-0.6-7.7-1.7
		c-2.4-1.1-5-3-7.5-5.6v-99c2.2-2.2,4.3-3.9,6.5-4.9c2.2-1.1,4.5-1.6,6.7-1.6c4.3,0,7.6,1.4,9.9,4.1c2.2,2.8,3.3,6.9,3.3,12.3V702.1
		z"/>
	<path fill="#231F20" d="M476.3,701.1c-3,3.4-6.3,6.2-9.8,8.5c-3.6,2.2-6.6,3.3-8.9,3.3c-3,0-5.2-0.8-6.5-2.5c-1.3-1.7-2-4.4-2-8.1
		v-122h-31.8v133c0,9.5,1.9,16.5,5.6,21.3c3.8,4.7,9.2,7.1,16.6,7.1c6,0,12.1-1.6,18.5-5c6.4-3.5,12.4-8.3,18.3-14.7v17.4h31.8v-159
		h-31.8V701.1z"/>
	<path fill="#231F20" d="M512,0C229.2,0,0,229.2,0,512c0,282.8,229.2,512,512,512s512-229.2,512-512C1024,229.2,794.8,0,512,0z
		 M594.7,252.9h35.7v134.3c0,4.2,0.8,7.1,2.3,9c1.5,1.9,3.9,2.8,7.3,2.8c2.6,0,5.9-1.3,10-3.7c4-2.5,7.7-5.6,11-9.5V252.9h35.8V428
		H661v-19.3c-6.5,7.1-13.4,12.6-20.6,16.3c-7.1,3.7-14,5.6-20.8,5.6c-8.3,0-14.5-2.6-18.7-7.9c-4.2-5.2-6.3-13-6.3-23.5V252.9z
		 M461.8,292.9c0-13.5,4.8-24.3,14.4-32.4c9.6-8,22.6-12,38.8-12c14.8,0,26.9,4.3,36.4,12.7c9.4,8.4,14.1,19.4,14.1,32.8v90.4
		c0,15-4.6,26.8-13.9,35.2c-9.3,8.5-22.1,12.8-38.3,12.8c-15.6,0-28.2-4.4-37.6-13.1c-9.4-8.9-14.1-20.7-14.1-35.6V292.9z
		 M364.4,190.6l26.2,94.9h2.5l24.9-94.9h40.9l-46.9,138.9V428h-40.3v-94.1l-48-143.3H364.4z M833,690.3
		c0,63.3-51.4,114.8-114.7,114.8H319.6c-63.4,0-114.8-51.4-114.8-114.8v-92.3c0-63.4,51.4-114.8,114.8-114.8h398.7
		c63.4,0,114.7,51.4,114.7,114.8V690.3z"/>
	<path fill="#231F20" d="M688.3,576.3c-14.2,0-25.8,4.3-34.8,13c-9,8.6-13.5,19.9-13.5,33.6v71.5c0,15.4,4.1,27.4,12.3,36.1
		c8.2,8.7,19.4,13.1,33.6,13.1c15.8,0,27.7-4.1,35.7-12.3c8-8.3,12-20.5,12-36.9v-8.2h-32.7v7.2c0,9.4-1.1,15.4-3.2,18.2
		c-2.1,2.7-5.8,4.1-11,4.1c-5.1,0-8.7-1.6-10.8-4.8c-2.1-3.3-3.1-9.1-3.1-17.5v-29.9h60.7V623c0-15-3.9-26.6-11.7-34.6
		C714.1,580.3,702.9,576.3,688.3,576.3z M700.9,638.9h-28.1v-16.1c0-6.7,1-11.5,3.3-14.3c2.2-3,5.8-4.4,10.9-4.4
		c4.8,0,8.4,1.4,10.6,4.4c2.2,2.8,3.4,7.6,3.4,14.3V638.9z"/>
</g>
</svg>
