<?xml version="1.0" encoding="utf-8"?>
<!-- Generator: Adobe Illustrator 18.1.1, SVG Export Plug-In . SVG Version: 6.00 Build 0)  -->
<!DOCTYPE svg PUBLIC "-//W3C//DTD SVG 1.1//EN" "http://www.w3.org/Graphics/SVG/1.1/DTD/svg11.dtd">
<svg version="1.1" id="Layer_1" xmlns="http://www.w3.org/2000/svg" xmlns:xlink="http://www.w3.org/1999/xlink" x="0px" y="0px"
	 viewBox="0 0 1024 1024" enable-background="new 0 0 1024 1024" xml:space="preserve">
<g>
	<polygon fill="#231F20" points="723.4,399.9 723.4,317.9 723.4,305.6 711.1,305.6 629,305.9 629.3,400.3 	"/>
	<path fill="#231F20" d="M509.5,617.8c54,0,98-43.9,98-98c0-21.3-6.9-41.1-18.6-57.1c-17.8-24.7-46.7-40.9-79.4-40.9
		c-32.7,0-61.6,16.2-79.4,40.9c-11.6,16.1-18.5,35.8-18.5,57.1C411.5,573.8,455.5,617.8,509.5,617.8z"/>
	<path fill="#231F20" d="M512,0C229.2,0,0,229.2,0,512c0,282.8,229.2,512,512,512c282.7,0,512-229.2,512-512
		C1024,229.2,794.8,0,512,0z M787.8,462.7v227.9c0,59.3-48.3,107.6-107.6,107.6H338.7c-59.3,0-107.6-48.2-107.6-107.6V462.7V349
		c0-59.3,48.2-107.6,107.6-107.6h341.5c59.3,0,107.6,48.2,107.6,107.6V462.7z"/>
	<path fill="#231F20" d="M661.7,519.8c0,83.9-68.3,152.2-152.2,152.2c-83.9,0-152.2-68.3-152.2-152.2c0-20.2,4-39.5,11.2-57.1h-83.1
		v227.9c0,29.4,23.9,53.3,53.3,53.3h341.5c29.4,0,53.3-23.9,53.3-53.3V462.7h-83.1C657.6,480.3,661.7,499.6,661.7,519.8z"/>
</g>
</svg>
