<?xml version="1.0" encoding="utf-8"?>
<!-- Generator: Adobe Illustrator 18.1.1, SVG Export Plug-In . SVG Version: 6.00 Build 0)  -->
<!DOCTYPE svg PUBLIC "-//W3C//DTD SVG 1.1//EN" "http://www.w3.org/Graphics/SVG/1.1/DTD/svg11.dtd">
<svg version="1.1" id="Layer_1" xmlns="http://www.w3.org/2000/svg" xmlns:xlink="http://www.w3.org/1999/xlink" x="0px" y="0px"
	 viewBox="0 0 1024 1024" enable-background="new 0 0 1024 1024" xml:space="preserve">
<path fill="#231F20" d="M512,0C229.2,0,0,229.3,0,512c0,282.8,229.2,512,512,512s512-229.2,512-512C1024,229.3,794.8,0,512,0z
	 M649.6,810.2c-21.1,0-137.9-2.8-167.7-2.8C452,807.5,296.6,759,296.6,588c0-30.5,0-61.1-0.1-91.6c-0.1-28.4-0.7-56.8-0.8-85
	c0-8.2-0.1-16.5-0.1-24.7c-0.2-43.1-3.8-91.6,10-133c10.6-31.6,35.7-44.2,66.6-44.2c74.7,0,79.7,76.2,79.9,152.7h216
	c34.2,0,59.7,34.7,59.7,87.8c0,53-55.3,64.9-84.3,64.9H449.7c-1,32.5-2,58.9-2,75c0,33.8,13.2,70.4,95.7,70.4h116
	c29,0,71.9,21.9,71.9,83.2C731.3,804.6,670.7,810.2,649.6,810.2z"/>
</svg>
