<?xml version="1.0" encoding="utf-8"?>
<!-- Generator: Adobe Illustrator 18.1.1, SVG Export Plug-In . SVG Version: 6.00 Build 0)  -->
<!DOCTYPE svg PUBLIC "-//W3C//DTD SVG 1.1//EN" "http://www.w3.org/Graphics/SVG/1.1/DTD/svg11.dtd">
<svg version="1.1" id="Layer_1" xmlns="http://www.w3.org/2000/svg" xmlns:xlink="http://www.w3.org/1999/xlink" x="0px" y="0px"
	 viewBox="0 0 1024 1024" enable-background="new 0 0 1024 1024" xml:space="preserve">
<g>
	<path fill="#231F20" d="M416.7,474.1c13.1,0,24.1-5.2,32.6-14.9c13.4-15.2,19.3-40.3,15.8-66.9c-6.3-47.5-40.2-87-75.6-88.1l-1.4,0
		c-12.5,0-23.7,5.1-32.3,14.9c-13.2,15.1-18.8,38.9-15.3,65.4c6.2,47.5,40.8,88.5,75.6,89.5H416.7z"/>
	<path fill="#231F20" d="M455.4,617.3c-3.5-2.4-7.1-4.8-10.8-7.4c-10.9-3.3-22.5-5.1-34.4-5.3h-1.5c-54.6,0-102.5,33.1-102.5,70.8
		c0,41,41,73.1,93.4,73.1c69.1,0,104.1-23.8,104.1-70.8c0-4.4-0.5-9-1.6-13.6C497.4,645.9,480.6,634.5,455.4,617.3z"/>
	<path fill="#231F20" d="M512,0C229.2,0,0,229.2,0,512c0,282.8,229.2,512,512,512c282.7,0,512-229.2,512-512
		C1024,229.2,794.8,0,512,0z M465.4,790.6c-20.4,5.9-42.4,8.9-65.6,8.9c-25.7,0-50.5-3-73.6-8.8c-44.7-11.3-77.8-32.7-93.2-60.2
		c-6.6-11.9-10-24.6-10-37.8c0-13.6,3.3-27.3,9.6-40.9c24.5-52.2,89.1-87.3,160.6-87.3c0.7,0,1.4,0,2.1,0
		c-5.8-10.2-8.6-20.8-8.6-31.9c0-5.6,0.7-11.2,2.2-17c-75-1.7-131.1-56.7-131.1-129.1c0-51.1,40.9-100.9,99.3-121.1
		c17.5-6,35.4-9.1,52.9-9.1h160.4c5.5,0,10.3,3.5,12,8.7c1.7,5.2-0.2,10.9-4.6,14.1l-35.8,25.9c-2.2,1.6-4.8,2.4-7.4,2.4h-12.8
		c16.6,19.9,26.3,48.2,26.3,80c0,35.1-17.8,68.4-50.1,93.7c-25,19.5-26,24.8-26,35.9c0.3,6.1,17.7,26,36.9,39.6
		c44.8,31.7,61.4,62.7,61.4,114.5C570.1,725.3,529,772.1,465.4,790.6z M827.7,515.4c0,7-5.7,12.6-12.6,12.6h-91.1v91.2
		c0,7-5.6,12.6-12.6,12.6h-25.9c-7,0-12.6-5.6-12.6-12.6v-91.2h-91.2c-6.9,0-12.6-5.6-12.6-12.6v-26c0-6.9,5.7-12.6,12.6-12.6h91.2
		v-91.1c0-7,5.6-12.6,12.6-12.6h25.9c7,0,12.6,5.6,12.6,12.6v91.1h91.1c6.9,0,12.6,5.7,12.6,12.6V515.4z"/>
</g>
</svg>
