<?xml version="1.0" encoding="utf-8"?>
<!-- Generator: Adobe Illustrator 18.1.1, SVG Export Plug-In . SVG Version: 6.00 Build 0)  -->
<!DOCTYPE svg PUBLIC "-//W3C//DTD SVG 1.1//EN" "http://www.w3.org/Graphics/SVG/1.1/DTD/svg11.dtd">
<svg version="1.1" id="Layer_1" xmlns="http://www.w3.org/2000/svg" xmlns:xlink="http://www.w3.org/1999/xlink" x="0px" y="0px"
	 viewBox="0 0 1024 1024" enable-background="new 0 0 1024 1024" xml:space="preserve">
<g>
	<path d="M1,468.9c0-25,0-50.5,0-75.6c1.4-4.3,3.3-8.5,3.8-13.2C30.8,141.5,254.2-30.4,493.7,4.5
		c263.1,38.7,428.9,298.1,351.9,552.2c-12.8,42-35,81.7-53.4,124.2c60.5,60.5,123.8,122.8,186.1,186.6c16.1,16.5,59.5,57.2,43,92.6
		c-10.9,30.2-31.6,50.5-61.4,61.4c-41.6,10.9-70.4-23.1-85.5-38.3c-65.7-64.7-129.4-130.4-194.1-196c-8,4.7-13.7,8-18.9,10.9
		C420.9,946.4,110.6,833,22.7,564.3C12.8,533.6,8.1,501,1,468.9z M434.6,157.1c-153.5,0-276.8,121.9-277.3,274
		s123.8,276.8,275.4,276.8c152.6-0.5,275.9-123.8,275.9-275.9C708.6,280.4,585.8,157.1,434.6,157.1z"/>
</g>
</svg>
